<mxfile host="app.diagrams.net" agent="Mozilla/5.0 (Windows NT 10.0; Win64; x64) AppleWebKit/537.36 (KHTML, like Gecko) Chrome/138.0.0.0 Safari/537.36" version="28.2.3">
  <diagram name="ページ1" id="dvRQ-ofHdvLLgjDwcIax">
    <mxGraphModel dx="1097" dy="591" grid="0" gridSize="10" guides="1" tooltips="1" connect="1" arrows="1" fold="1" page="1" pageScale="1" pageWidth="827" pageHeight="1169" math="0" shadow="0">
      <root>
        <mxCell id="0" />
        <mxCell id="1" parent="0" />
        <mxCell id="FYbBfj2JqWYbvjDusPlv-2" value="&lt;b style=&quot;&quot;&gt;&lt;font style=&quot;font-size: 18px;&quot;&gt;Tributary UseCase Flow chart&lt;/font&gt;&lt;/b&gt;" style="text;html=1;align=left;verticalAlign=middle;whiteSpace=wrap;rounded=0;" vertex="1" parent="1">
          <mxGeometry x="10" y="10" width="290" height="40" as="geometry" />
        </mxCell>
        <mxCell id="FYbBfj2JqWYbvjDusPlv-6" value="" style="shadow=0;dashed=0;html=1;strokeColor=none;fillColor=#4495D1;labelPosition=center;verticalLabelPosition=bottom;verticalAlign=top;align=center;outlineConnect=0;shape=mxgraph.veeam.company_owner;" vertex="1" parent="1">
          <mxGeometry x="192.5" y="59.99999999999999" width="60" height="60" as="geometry" />
        </mxCell>
        <mxCell id="FYbBfj2JqWYbvjDusPlv-9" value="&lt;font style=&quot;font-size: 44px;&quot;&gt;&lt;i style=&quot;&quot;&gt;&lt;b&gt;Tributary&lt;/b&gt;&lt;/i&gt;&lt;/font&gt;" style="rounded=0;whiteSpace=wrap;html=1;fillColor=#2D12FF;strokeColor=#2D12FF;fontColor=#2D12FF;glass=0;strokeWidth=0.2;fontFamily=Georgia;sketch=1;curveFitting=1;jiggle=2;" vertex="1" parent="1">
          <mxGeometry x="110" y="184.4" width="225" height="50" as="geometry" />
        </mxCell>
        <mxCell id="FYbBfj2JqWYbvjDusPlv-14" value="" style="sketch=0;aspect=fixed;pointerEvents=1;shadow=0;dashed=0;html=1;strokeColor=none;labelPosition=center;verticalLabelPosition=bottom;verticalAlign=top;align=center;fillColor=#00188D;shape=mxgraph.azure.user" vertex="1" parent="1">
          <mxGeometry x="282.5" y="300" width="60" height="63.83" as="geometry" />
        </mxCell>
        <mxCell id="FYbBfj2JqWYbvjDusPlv-36" value="" style="sketch=0;aspect=fixed;pointerEvents=1;shadow=0;dashed=0;html=1;strokeColor=none;labelPosition=center;verticalLabelPosition=bottom;verticalAlign=top;align=center;fillColor=#00188D;shape=mxgraph.azure.user" vertex="1" parent="1">
          <mxGeometry x="102.5" y="300" width="60" height="63.83" as="geometry" />
        </mxCell>
        <mxCell id="FYbBfj2JqWYbvjDusPlv-53" value="" style="group" vertex="1" connectable="0" parent="1">
          <mxGeometry x="270" y="370" width="85" height="30" as="geometry" />
        </mxCell>
        <mxCell id="FYbBfj2JqWYbvjDusPlv-48" value="" style="rounded=0;whiteSpace=wrap;html=1;" vertex="1" parent="FYbBfj2JqWYbvjDusPlv-53">
          <mxGeometry width="80" height="30" as="geometry" />
        </mxCell>
        <mxCell id="FYbBfj2JqWYbvjDusPlv-49" value="" style="group" vertex="1" connectable="0" parent="FYbBfj2JqWYbvjDusPlv-53">
          <mxGeometry x="5" y="2.5" width="25" height="25" as="geometry" />
        </mxCell>
        <mxCell id="FYbBfj2JqWYbvjDusPlv-50" value="" style="ellipse;whiteSpace=wrap;html=1;aspect=fixed;strokeColor=none;fillColor=light-dark(#5252b7, #cdcdff);" vertex="1" parent="FYbBfj2JqWYbvjDusPlv-49">
          <mxGeometry width="25" height="25" as="geometry" />
        </mxCell>
        <mxCell id="FYbBfj2JqWYbvjDusPlv-51" value="&lt;span&gt;&lt;b&gt;A&lt;/b&gt;&lt;/span&gt;" style="text;html=1;align=center;verticalAlign=middle;whiteSpace=wrap;rounded=0;fontSize=20;fontColor=#FFFFFF;" vertex="1" parent="FYbBfj2JqWYbvjDusPlv-49">
          <mxGeometry x="10" y="10" width="5" height="5" as="geometry" />
        </mxCell>
        <mxCell id="FYbBfj2JqWYbvjDusPlv-52" value="&lt;span style=&quot;font-size: 14px;&quot;&gt;&lt;b&gt;50&lt;/b&gt;&lt;/span&gt;" style="text;html=1;align=right;verticalAlign=middle;whiteSpace=wrap;rounded=0;" vertex="1" parent="FYbBfj2JqWYbvjDusPlv-53">
          <mxGeometry x="35" y="5" width="35" height="20" as="geometry" />
        </mxCell>
        <mxCell id="FYbBfj2JqWYbvjDusPlv-54" value="" style="group" vertex="1" connectable="0" parent="1">
          <mxGeometry x="90" y="370" width="85" height="30" as="geometry" />
        </mxCell>
        <mxCell id="FYbBfj2JqWYbvjDusPlv-47" value="" style="rounded=0;whiteSpace=wrap;html=1;" vertex="1" parent="FYbBfj2JqWYbvjDusPlv-54">
          <mxGeometry width="80" height="30" as="geometry" />
        </mxCell>
        <mxCell id="FYbBfj2JqWYbvjDusPlv-43" value="" style="group" vertex="1" connectable="0" parent="FYbBfj2JqWYbvjDusPlv-54">
          <mxGeometry x="5" y="2.5" width="25" height="25" as="geometry" />
        </mxCell>
        <mxCell id="FYbBfj2JqWYbvjDusPlv-44" value="" style="ellipse;whiteSpace=wrap;html=1;aspect=fixed;strokeColor=none;fillColor=light-dark(#5252b7, #cdcdff);" vertex="1" parent="FYbBfj2JqWYbvjDusPlv-43">
          <mxGeometry width="25" height="25" as="geometry" />
        </mxCell>
        <mxCell id="FYbBfj2JqWYbvjDusPlv-45" value="&lt;span&gt;&lt;b&gt;A&lt;/b&gt;&lt;/span&gt;" style="text;html=1;align=center;verticalAlign=middle;whiteSpace=wrap;rounded=0;fontSize=20;fontColor=#FFFFFF;" vertex="1" parent="FYbBfj2JqWYbvjDusPlv-43">
          <mxGeometry x="10" y="10" width="5" height="5" as="geometry" />
        </mxCell>
        <mxCell id="FYbBfj2JqWYbvjDusPlv-46" value="&lt;span style=&quot;font-size: 14px;&quot;&gt;&lt;b&gt;1,000&lt;/b&gt;&lt;/span&gt;" style="text;html=1;align=left;verticalAlign=middle;whiteSpace=wrap;rounded=0;" vertex="1" parent="FYbBfj2JqWYbvjDusPlv-54">
          <mxGeometry x="35" y="5" width="50" height="20" as="geometry" />
        </mxCell>
        <mxCell id="FYbBfj2JqWYbvjDusPlv-28" value="" style="group" vertex="1" connectable="0" parent="1">
          <mxGeometry x="184" y="130" width="25" height="25" as="geometry" />
        </mxCell>
        <mxCell id="FYbBfj2JqWYbvjDusPlv-29" value="" style="ellipse;whiteSpace=wrap;html=1;aspect=fixed;strokeColor=none;fillColor=light-dark(#009900,#CDCDFF);" vertex="1" parent="FYbBfj2JqWYbvjDusPlv-28">
          <mxGeometry width="25" height="25" as="geometry" />
        </mxCell>
        <mxCell id="FYbBfj2JqWYbvjDusPlv-30" value="&lt;span&gt;&lt;b&gt;B&lt;/b&gt;&lt;/span&gt;" style="text;html=1;align=center;verticalAlign=middle;whiteSpace=wrap;rounded=0;fontSize=20;fontColor=#FFFFFF;" vertex="1" parent="FYbBfj2JqWYbvjDusPlv-28">
          <mxGeometry x="10" y="10" width="5" height="5" as="geometry" />
        </mxCell>
        <mxCell id="FYbBfj2JqWYbvjDusPlv-56" value="" style="rounded=0;whiteSpace=wrap;html=1;" vertex="1" parent="1">
          <mxGeometry x="180" y="127.5" width="80" height="30" as="geometry" />
        </mxCell>
        <mxCell id="FYbBfj2JqWYbvjDusPlv-60" value="&lt;span style=&quot;font-size: 14px;&quot;&gt;&lt;b&gt;10,000&lt;/b&gt;&lt;/span&gt;" style="text;html=1;align=right;verticalAlign=middle;whiteSpace=wrap;rounded=0;" vertex="1" parent="1">
          <mxGeometry x="215" y="132.5" width="35" height="20" as="geometry" />
        </mxCell>
      </root>
    </mxGraphModel>
  </diagram>
</mxfile>
